Coordinates
version=1
nRows=14
nColumns=24
inDegrees=yes

Units are S.I. units (second, meters, Newtons, ...)
Angles are in degrees.

endheader
time	pelvis_tilt	pelvis_list	pelvis_rotation	pelvis_tx	pelvis_ty	pelvis_tz	hip_flexion_r	hip_adduction_r	hip_rotation_r	knee_angle_r	ankle_angle_r	subtalar_angle_r	mtp_angle_r	hip_flexion_l	hip_adduction_l	hip_rotation_l	knee_angle_l	ankle_angle_l	subtalar_angle_l	mtp_angle_l	lumbar_extension	lumbar_bending	lumbar_rotation
      0.92033333	      0.08220727	     -0.73760524	     -2.03675552	     -0.16886280	      0.97788017	      0.29783298	    -11.53887634	      3.89049198	     -5.41949719	    -12.18697679	     16.19940528	      2.53550096	      2.01011426	     23.98085947	      1.45465259	     -3.90690861	     -6.87960619	      1.43871952	     -3.27581218	      0.23477278	     -2.83816202	      4.40838042	      7.48744760
      0.92450000	      0.02271169	     -0.65264569	     -2.04523448	     -0.16300461	      0.97728792	      0.29750929	    -11.47793593	      3.73868607	     -5.34569654	    -12.90392073	     16.27821071	      2.44345504	      2.04447203	     23.99372408	      1.62346733	     -3.75721723	     -7.09556473	      1.17057402	     -3.46069604	      0.31162047	     -2.73693553	      4.30999131	      7.51114753
      0.92866667	     -0.03162424	     -0.54318066	     -2.04863357	     -0.15709227	      0.97674773	      0.29719032	    -11.40275533	      3.56296050	     -5.26403226	    -13.66069674	     16.32699179	      2.31306127	      2.06930337	     24.00215732	      1.81329705	     -3.63299852	     -7.37951153	      0.90137734	     -3.57472482	      0.36180708	     -2.62905659	      4.16946681	      7.50585172
      0.93283333	     -0.09673602	     -0.45310935	     -2.05350336	     -0.15120865	      0.97624515	      0.29684298	    -11.27030067	      3.40476052	     -5.17519465	    -14.50181470	     16.37696949	      2.20614709	      2.12838122	     24.01774296	      1.99087778	     -3.41544956	     -7.70725282	      0.58968892	     -3.89257039	      0.46916348	     -2.51803755	      4.07916982	      7.50719509
      0.93700000	     -0.16381635	     -0.35227281	     -2.04232122	     -0.14528419	      0.97576650	      0.29647469	    -11.11675537	      3.23930701	     -5.08839876	    -15.37788399	     16.35270286	      2.05230945	      2.19469871	     24.04949804	      2.18026029	     -3.22027214	     -8.11216354	      0.28987455	     -4.16119137	      0.57890907	     -2.39827377	      3.96598260	      7.48878053
      0.94116667	     -0.22044952	     -0.23573928	     -2.03136407	     -0.13932854	      0.97536588	      0.29610940	    -10.94473725	      3.05701653	     -4.99697682	    -16.30587820	     16.29543501	      1.87854853	      2.28282844	     24.06147603	      2.38540358	     -3.01912026	     -8.54348501	     -0.03678434	     -4.48946872	      0.70443396	     -2.28126492	      3.82170996	      7.46804875
      0.94533333	     -0.26880689	     -0.11971741	     -2.00862308	     -0.13335986	      0.97500063	      0.29572197	    -10.75179935	      2.87559937	     -4.91282027	    -17.28742019	     16.18336992	      1.69667406	      2.40266767	     24.07098923	      2.59377435	     -2.80358680	     -9.02182000	     -0.35918780	     -4.85823548	      0.84982412	     -2.17392338	      3.68202404	      7.43722346
      0.94950000	     -0.33086335	     -0.00147697	     -1.98173813	     -0.12737576	      0.97467180	      0.29531958	    -10.51243415	      2.69316408	     -4.81998762	    -18.32083464	     16.01290274	      1.50097422	      2.57938303	     24.09954964	      2.80486502	     -2.59067119	     -9.53877921	     -0.68347001	     -5.26978977	      1.03166096	     -2.05049808	      3.53739957	      7.40320948
      0.95366667	     -0.37734776	      0.13820052	     -1.96324655	     -0.12136788	      0.97441401	      0.29490615	    -10.24542865	      2.47803149	     -4.74061030	    -19.43209384	     15.78176107	      1.30527876	      2.74035148	     24.08930351	      3.03315368	     -2.39564954	    -10.03414611	     -1.00681091	     -5.60173912	      1.17066725	     -1.94675764	      3.38819379	      7.35649169
      0.95783333	     -0.43323295	      0.26499326	     -1.93527614	     -0.11536936	      0.97417162	      0.29448058	     -9.93015531	      2.27677943	     -4.66873315	    -20.60416701	     15.49117456	      1.11696374	      2.93884562	     24.10230262	      3.24918402	     -2.19623999	    -10.57489223	     -1.31844882	     -5.99766828	      1.31321463	     -1.82174492	      3.22781840	      7.30571925
      0.96200000	     -0.49221837	      0.40262613	     -1.90574624	     -0.10936774	      0.97396810	      0.29403487	     -9.57050963	      2.05781055	     -4.61136463	    -21.84120879	     15.13501447	      0.95270968	      3.20341608	     24.11480089	      3.47657223	     -2.00048769	    -11.12234339	     -1.62593482	     -6.41991289	      1.47108661	     -1.70001306	      3.06514479	      7.24961598
      0.96616667	     -0.48823946	      0.57343304	     -1.85758338	     -0.10331234	      0.97387459	      0.29353609	     -9.24833162	      1.77765254	     -4.67142526	    -23.11007867	     14.56022104	      0.91601094	      8.10908461	     24.05171375	      3.74417663	     -1.84012208	    -11.66761988	     -1.91958953	     -6.85060274	      3.87153231	     -1.64618088	      2.85489299	      7.17128525
      0.97033333	     -0.53699942	      0.72214335	     -1.84640246	     -0.09731163	      0.97377187	      0.29312289	     -8.81461107	      1.53968301	     -4.57948257	    -24.47940112	     14.08007064	      0.64613913	      8.15555525	     24.03897041	      3.96264646	     -1.72677026	    -12.21062713	     -2.15482929	     -7.13157149	      3.86100697	     -1.52939043	      2.67428390	      7.12229311
      0.97450000	     -0.59186524	      0.87421983	     -1.81775958	     -0.09134249	      0.97368106	      0.29265126	     -8.32946842	      1.28505828	     -4.54602255	    -25.91101602	     13.51545442	      0.51747565	      8.28039527	     24.04578124	      4.19490501	     -1.59094754	    -12.78704953	     -2.36186021	     -7.51434175	      3.84708935	     -1.41877813	      2.49432169	      7.06293251
